<svg viewBox="0 0 1100 220" xmlns="http://www.w3.org/2000/svg" role="img">
<title>보라색 그라디언트 헤더에 새싹 마스코트 일러스트와 우측 상단 유틸리티 아이콘, 은은한 배경 원형 패턴이 추가된 대시보드 헤더</title>
<desc>왼쪽에 배지, 제목, 부제목 텍스트가 있고 오른쪽에 새싹 캐릭터 일러스트가 배치됨. 우측 상단에는 알림과 설정 아이콘이 있음.</desc>
<defs>
<linearGradient id="headerGrad" x1="0" y1="0" x2="1" y2="1">
<stop offset="0%" stop-color="#7C6FA8"/>
<stop offset="60%" stop-color="#A98FD9"/>
<stop offset="100%" stop-color="#C9B8E9"/>
</linearGradient>
</defs>

<rect x="0" y="0" width="1100" height="220" fill="url(#headerGrad)"/>

<circle cx="950" cy="40" r="90" fill="#ffffff" opacity="0.06"/>
<circle cx="1050" cy="170" r="60" fill="#ffffff" opacity="0.06"/>
<circle cx="850" cy="190" r="40" fill="#ffffff" opacity="0.05"/>

<g>
<circle cx="1050" cy="30" r="16" fill="#ffffff" opacity="0.18"/>
<path d="M1044 26 a6 6 0 0 1 12 0 v6 l3 4 h-18 l3 -4 z" fill="#ffffff" opacity="0.9"/>
<circle cx="1005" cy="30" r="16" fill="#ffffff" opacity="0.18"/>
<circle cx="1005" cy="30" r="5" fill="none" stroke="#ffffff" stroke-width="2" opacity="0.9"/>
<path d="M1005 22v2M1005 36v2M997 30h2M1011 30h2M999.5 24.5l1.4 1.4M1009 34l1.4 1.4M999.5 35.5l1.4 -1.4M1009 26l1.4 -1.4" stroke="#ffffff" stroke-width="1.5" opacity="0.9"/>
</g>

<g transform="translate(870,80)">
<ellipse cx="70" cy="130" rx="55" ry="10" fill="#5B4B92" opacity="0.15"/>
<path d="M70 130 C40 130 20 100 30 65 C36 45 55 30 70 30 C85 30 104 45 110 65 C120 100 100 130 70 130 Z" fill="#F7F4FC"/>
<path d="M70 30 C68 10 55 -5 40 -8" fill="none" stroke="#639922" stroke-width="4" stroke-linecap="round"/>
<path d="M40 -8 C30 -10 20 -4 16 8 C26 12 38 6 40 -8 Z" fill="#97C459"/>
<path d="M70 30 C74 12 88 0 100 -2" fill="none" stroke="#3B6D11" stroke-width="4" stroke-linecap="round"/>
<path d="M100 -2 C110 -6 122 0 126 12 C114 16 102 12 100 -2 Z" fill="#639922"/>
<circle cx="55" cy="70" r="4" fill="#5B4B92"/>
<circle cx="85" cy="70" r="4" fill="#5B4B92"/>
<path d="M55 90 Q70 100 85 90" fill="none" stroke="#5B4B92" stroke-width="3" stroke-linecap="round"/>
</g>
</svg>